<svg t="1704441250694" class="icon" viewBox="0 0 1024 1024" version="1.1" xmlns="http://www.w3.org/2000/svg" p-id="10154" width="200" height="200"><path d="M942.933333 1019.733333H81.066667C38.4 1019.733333 0 981.333333 0 938.666667v-392.533334c0-42.666667 38.4-81.066667 81.066667-81.066666h861.866666c42.666667 0 81.066667 38.4 81.066667 81.066666V938.666667c0 42.666667-38.4 81.066667-81.066667 81.066666z m-861.866666-512c-21.333333 0-38.4 17.066667-38.4 38.4V938.666667c0 21.333333 17.066667 38.4 38.4 38.4h861.866666c21.333333 0 38.4-17.066667 38.4-38.4v-392.533334c0-21.333333-17.066667-38.4-38.4-38.4H81.066667z" fill="#bfbfbf" p-id="10155"></path><path d="M896 486.4h-42.666667V379.733333c0-21.333333-17.066667-38.4-38.4-38.4H209.066667c-21.333333 0-38.4 17.066667-38.4 38.4v102.4H128V379.733333C128 337.066667 166.4 298.666667 209.066667 298.666667h605.866666c42.666667 0 81.066667 38.4 81.066667 81.066666v106.666667zM768 298.666667h-42.666667V230.4c0-21.333333-17.066667-38.4-38.4-38.4H337.066667c-21.333333 0-38.4 17.066667-38.4 38.4V298.666667H256V230.4c0-42.666667 38.4-81.066667 81.066667-81.066667h349.866666c42.666667 0 81.066667 38.4 81.066667 81.066667V298.666667zM422.4 891.733333c-8.533333 0-17.066667-4.266667-25.6-8.533333-17.066667-8.533333-25.6-25.6-25.6-42.666667V640c0-17.066667 8.533333-34.133333 25.6-42.666667 17.066667-8.533333 34.133333-8.533333 51.2 0l174.933333 102.4c17.066667 8.533333 25.6 25.6 25.6 42.666667s-8.533333 34.133333-25.6 42.666667l-174.933333 102.4c-8.533333 4.266667-17.066667 4.266667-25.6 4.266666z m0-260.266666c-4.266667 0-8.533333 4.266667-8.533333 8.533333v204.8c0 4.266667 4.266667 4.266667 4.266666 8.533333h8.533334l174.933333-102.4c4.266667 0 4.266667-4.266667 4.266667-8.533333s0-4.266667-4.266667-8.533333l-179.2-102.4c4.266667 0 4.266667 0 0 0z" fill="#bfbfbf" p-id="10156"></path></svg>