<svg t="1708243379097" class="icon" viewBox="0 0 1024 1024" version="1.1" xmlns="http://www.w3.org/2000/svg" p-id="22186" width="200" height="200"><path d="M832.783549 187.930108h-19.474622v-70.595507h19.474622z m-648.018067 0v-70.595507h19.352906v70.595507z m0 143.868775h19.352906v180.140259h-19.352906z m648.018067 0v180.140259h-19.474622v-180.140259z m-109.544752 225.540473a60.858196 60.858196 0 0 0-64.874836 64.75312 60.858196 60.858196 0 0 0 64.874836 64.874836 60.858196 60.858196 0 0 0 64.75312-64.874836 60.858196 60.858196 0 0 0-64.75312-64.75312zM521.676453 382.311185a32.498276 32.498276 0 1 0 32.498277 32.498277 34.810888 34.810888 0 0 0-32.498277-32.498277zM275.444194 557.339356A43.452752 43.452752 0 0 0 230.409129 596.410317a44.304766 44.304766 0 0 0 45.400214 45.400214c25.925591 0 38.949245-19.474623 38.949245-45.400214a41.870439 41.870439 0 0 0-38.949245-38.827528z m447.186021 168.455485a109.544752 109.544752 0 0 1-109.544752-110.153334 82.280281 82.280281 0 0 1 6.450969-38.827529l-64.75312-97.373113a50.025437 50.025437 0 0 1-32.498277 13.023654 59.275883 59.275883 0 0 1-51.851183-25.925591l-116.604302 97.373113a58.789017 58.789017 0 0 1 5.842386 32.498276 85.201474 85.201474 0 0 1-84.227742 84.34946c-45.400214 0-90.678712-38.949245-90.678712-84.34946a87.270653 87.270653 0 0 1 90.678712-84.227742 122.690122 122.690122 0 0 1 52.338048 12.780221l116.604303-103.702366v-6.450968a78.872222 78.872222 0 0 1 77.776774-77.776774 74.855581 74.855581 0 0 1 77.776774 77.776774 58.789017 58.789017 0 0 1-6.450969 32.37656l64.75312 97.373113a80.211102 80.211102 0 0 1 64.874837-32.37656 109.544752 109.544752 0 0 1 109.544752 109.544752c0 58.423868-51.851183 103.702365-109.544752 103.702365zM104.676097 282.260311V949.387852l80.089385-203.874955V705.95507h19.352906v45.278497h608.581957V705.95507h19.961488v45.278497l86.540354 202.04921V282.260311zM814.647807 56.598122H208.256746L105.771544 213.8557h812.456912z m37.610365 898.997266l-57.206704-148.980863H228.33995l-55.867824 148.980863zM35.662903 1024V213.8557L165.290859 0h693.783431l129.262807 213.8557v810.1443z" fill="#bfbfbf" p-id="22187"></path></svg>