<svg t="1707206916723" class="icon" viewBox="0 0 1024 1024" version="1.1" xmlns="http://www.w3.org/2000/svg" p-id="8642" width="200" height="200"><path d="M446.305499 865.498982C208.553971 865.498982 14.598778 671.543788 14.598778 431.706721 14.598778 193.955193 208.553971 0 446.305499 0s431.706721 193.955193 431.706721 431.706721c2.08554 239.837067-191.869654 433.792261-431.706721 433.792261z m0-805.01833c-204.382892 0-371.226069 166.843177-371.226069 371.226069s166.843177 371.226069 371.226069 371.226069 371.226069-166.843177 371.226069-371.226069S652.773931 60.480652 446.305499 60.480652z" p-id="8643" fill="#bfbfbf"></path><path d="M717.425662 729.9389l260.692464 262.778004" fill="#bfbfbf" p-id="8644"></path><path d="M978.118126 1024c-8.342159 0-14.598778-2.08554-20.855397-8.342159L694.484725 752.879837c-12.513238-12.513238-12.513238-31.283096 0-41.710794 12.513238-12.513238 31.283096-12.513238 41.710794 0l262.778004 262.778004c12.513238 12.513238 12.513238 31.283096 0 41.710794-4.171079 4.171079-12.513238 8.342159-20.855397 8.342159z" p-id="8645" fill="#bfbfbf"></path></svg>