<svg t="1712898478038" class="icon" viewBox="0 0 1024 1024" version="1.1" xmlns="http://www.w3.org/2000/svg" p-id="1518" width="200" height="200"><path d="M512 0c282.784 0 512 229.216 512 512s-229.216 512-512 512S0 794.784 0 512 229.216 0 512 0z m0 89.92C278.88 89.92 89.92 278.88 89.92 512c0 233.12 188.96 422.08 422.08 422.08 233.12 0 422.08-188.96 422.08-422.08 0-233.12-188.96-422.08-422.08-422.08z m0 38.976c211.584 0 383.104 171.52 383.104 383.104 0 211.584-171.52 383.104-383.104 383.104z" p-id="1519"></path></svg>